<svg width="24" height="24" viewBox="0 0 24 24" fill="none" xmlns="http://www.w3.org/2000/svg">
<path d="M16.2105 4H7.78947C4.59204 4 2 7.80558 2 12.5C2 17.1944 4.59204 21 7.78947 21H16.2105C19.408 21 22 17.1944 22 12.5C22 7.80558 19.408 4 16.2105 4Z" stroke="#333333" stroke-width="2"/>
<path d="M10 17C10 15.8954 9.10457 15 8 15C6.89543 15 6 15.8954 6 17C6 18.1046 6.89543 19 8 19C9.10457 19 10 18.1046 10 17Z" fill="#333333"/>
<path d="M18 9C18 7.89543 17.1046 7 16 7C14.8954 7 14 7.89543 14 9C14 10.1046 14.8954 11 16 11C17.1046 11 18 10.1046 18 9Z" fill="#333333"/>
<path d="M14 13C14 11.8954 13.1046 11 12 11C10.8954 11 10 11.8954 10 13C10 14.1046 10.8954 15 12 15C13.1046 15 14 14.1046 14 13Z" fill="#333333"/>
</svg>
